<?xml version="1.0" encoding="utf-8"?>
<!-- Generator: Adobe Illustrator 25.0.0, SVG Export Plug-In . SVG Version: 6.00 Build 0)  -->
<svg version="1.1" id="Capa_1" xmlns="http://www.w3.org/2000/svg" xmlns:xlink="http://www.w3.org/1999/xlink" x="0px" y="0px"
	 viewBox="0 0 640 480" style="enable-background:new 0 0 640 480;" xml:space="preserve">
<style type="text/css">
	.st0{fill:#FFA539;}
	.st1{fill:#BC7439;}
	.st2{opacity:0.12;}
</style>
<g>
	<g>
		<circle class="st0" cx="322.39" cy="240" r="150.13"/>
		<path class="st1" d="M322.39,61c-98.85,0-179,80.15-179,179c0,98.87,80.15,179,179,179s179-80.13,179-179
			C501.39,141.15,421.24,61,322.39,61z M322.39,390.13c-82.79,0-150.13-67.34-150.13-150.13c0-82.77,67.34-150.13,150.13-150.13
			S472.52,157.23,472.52,240C472.52,322.79,405.17,390.13,322.39,390.13z"/>
		<path class="st2" d="M322.38,89.88c-1.97,0-4.07,0.05-6.23,0.13c-0.35,0.01-0.7,0.04-1.06,0.06
			c79.29,3.95,142.56,69.7,142.56,149.94c0,80.25-63.28,145.99-142.56,149.94c0.35,0.02,0.69,0.04,1.04,0.05
			c2.18,0.09,4.28,0.14,6.25,0.14c82.78,0,150.13-67.35,150.13-150.13S405.16,89.88,322.38,89.88z"/>
	</g>
	<g>
		<g class="st2">
			<path d="M376.4,203.99h-44.51l-6.89-4.95l6.89-2.43c0-7.86-0.51-13-1.54-15.42c-1.03-2.42-3.23-3.64-6.61-3.64
				c-2.72,0-4.76,1.05-6.11,3.14c-1.36,2.09-2.04,5.23-2.04,9.42c0,6.98,1.39,11.86,4.19,14.65c2.72,2.79,10.72,8.23,24.02,16.31
				c11.31,6.83,19.02,12.06,23.14,15.7c4.11,3.64,7.58,8.78,10.41,15.42c2.83,6.65,4.24,14.93,4.24,24.84
				c0,15.86-3.82,28.31-11.46,37.35c-7.64,9.03-19.1,14.62-34.37,16.75v16.75h-20.49l-6.89-4.95l6.89-12.34
				c-11.9-1.17-22.29-5.75-31.18-13.72c-8.89-7.97-13.33-21.87-13.33-41.7v-8.7l37.62-4.95l6.89,4.95v10.91
				c0,11.97,0.46,19.41,1.38,22.31c0.92,2.9,3.14,4.35,6.67,4.35c3.01,0,5.25-1.01,6.72-3.03c1.47-2.02,2.2-5.01,2.2-8.98
				c0-9.99-0.7-17.13-2.09-21.43c-1.4-4.3-6.17-8.98-14.32-14.05c-13.59-8.52-22.82-14.78-27.71-18.78
				c-4.89-4-9.11-9.64-12.67-16.91c-3.56-7.27-5.34-15.5-5.34-24.68c0-13.29,3.76-23.72,11.29-31.29
				c7.53-7.56,18.82-12.23,33.88-13.99v-14.21l13.13-4.54l7.36,4.54v14.21c13.73,1.76,24.02,6.37,30.85,13.83
				c6.83,7.46,10.25,17.76,10.25,30.9C376.84,197.45,376.69,200.24,376.4,203.99z"/>
		</g>
		<path class="st1" d="M369.51,199.04H325v-7.38c0-7.86-0.51-13-1.54-15.42c-1.03-2.42-3.23-3.64-6.61-3.64
			c-2.72,0-4.76,1.05-6.11,3.14c-1.36,2.09-2.04,5.23-2.04,9.42c0,6.98,1.39,11.86,4.19,14.65c2.72,2.79,10.72,8.23,24.02,16.31
			c11.31,6.83,19.02,12.06,23.14,15.7c4.11,3.64,7.58,8.78,10.41,15.42c2.83,6.65,4.24,14.93,4.24,24.84
			c0,15.86-3.82,28.31-11.46,37.35c-7.64,9.03-19.1,14.62-34.37,16.75v16.75h-20.49v-17.3c-11.9-1.17-22.29-5.75-31.18-13.72
			c-8.89-7.97-13.33-21.87-13.33-41.7v-8.7h44.51v10.91c0,11.97,0.46,19.41,1.38,22.31c0.92,2.9,3.14,4.35,6.67,4.35
			c3.01,0,5.25-1.01,6.72-3.03c1.47-2.02,2.2-5.01,2.2-8.98c0-9.99-0.7-17.13-2.09-21.43c-1.4-4.3-6.17-8.98-14.32-14.05
			c-13.59-8.52-22.82-14.78-27.71-18.78c-4.89-4-9.11-9.64-12.67-16.91c-3.56-7.27-5.34-15.5-5.34-24.68
			c0-13.29,3.76-23.72,11.29-31.29c7.53-7.56,18.82-12.23,33.88-13.99v-13.8h20.49v13.8c13.73,1.76,24.02,6.37,30.85,13.83
			c6.83,7.46,10.25,17.76,10.25,30.9C369.95,192.5,369.8,195.29,369.51,199.04z"/>
	</g>
</g>
</svg>
